<svg xmlns="http://www.w3.org/2000/svg" width="24" height="24" fill="none" viewBox="0 0 24 24" id="logout"><path fill="#000" fill-rule="evenodd" d="M3 13H15V11H3V13Z" clip-rule="evenodd"></path><path fill="#000" fill-rule="evenodd" d="M5.79282 7.79291L2.29282 11.2929C1.90229 11.6834 1.90229 12.3166 2.29282 12.7071L5.79282 16.2071 7.20703 14.7929 4.41414 12 7.20703 9.20712 5.79282 7.79291zM8 4C8 3.44772 8.44772 3 9 3H21C21.5523 3 22 3.44772 22 4V20C22 20.5523 21.5523 21 21 21H9C8.44772 21 8 20.5523 8 20V17H10V19H20V5H10V7H8V4z" clip-rule="evenodd"></path></svg>